<svg xmlns="http://www.w3.org/2000/svg" xmlns:xlink="http://www.w3.org/1999/xlink" viewBox="0 0 406.24 171.37"><defs><style>.cls-1,.cls-10,.cls-11,.cls-12,.cls-13,.cls-14,.cls-15,.cls-16,.cls-17,.cls-18,.cls-19,.cls-2,.cls-20,.cls-21,.cls-22,.cls-23,.cls-24,.cls-25,.cls-26,.cls-27,.cls-28,.cls-29,.cls-3,.cls-30,.cls-31,.cls-32,.cls-33,.cls-34,.cls-35,.cls-36,.cls-37,.cls-38,.cls-39,.cls-4,.cls-40,.cls-41,.cls-42,.cls-43,.cls-44,.cls-45,.cls-46,.cls-47,.cls-48,.cls-49,.cls-5,.cls-50,.cls-51,.cls-52,.cls-53,.cls-54,.cls-55,.cls-56,.cls-57,.cls-58,.cls-59,.cls-6,.cls-60,.cls-61,.cls-62,.cls-63,.cls-64,.cls-65,.cls-66,.cls-67,.cls-68,.cls-69,.cls-7,.cls-70,.cls-71,.cls-72,.cls-73,.cls-74,.cls-75,.cls-76,.cls-77,.cls-78,.cls-79,.cls-8,.cls-80,.cls-81,.cls-82,.cls-83,.cls-84,.cls-9{fill:none;stroke-miterlimit:10;}.cls-1{stroke:url(#linear-gradient);}.cls-2{stroke:url(#linear-gradient-2);}.cls-3{stroke:url(#linear-gradient-3);}.cls-4{stroke:url(#linear-gradient-4);}.cls-5{stroke:url(#linear-gradient-5);}.cls-6{stroke:url(#linear-gradient-6);}.cls-7{stroke:url(#linear-gradient-7);}.cls-8{stroke:url(#linear-gradient-8);}.cls-9{stroke:url(#linear-gradient-9);}.cls-10{stroke:url(#linear-gradient-10);}.cls-11{stroke:url(#linear-gradient-11);}.cls-12{stroke:url(#linear-gradient-12);}.cls-13{stroke:url(#linear-gradient-13);}.cls-14{stroke:url(#linear-gradient-14);}.cls-15{stroke:url(#linear-gradient-15);}.cls-16{stroke:url(#linear-gradient-16);}.cls-17{stroke:url(#linear-gradient-17);}.cls-18{stroke:url(#linear-gradient-18);}.cls-19{stroke:url(#linear-gradient-19);}.cls-20{stroke:url(#linear-gradient-20);}.cls-21{stroke:url(#linear-gradient-21);}.cls-22{stroke:url(#linear-gradient-22);}.cls-23{stroke:url(#linear-gradient-23);}.cls-24{stroke:url(#linear-gradient-24);}.cls-25{stroke:url(#linear-gradient-25);}.cls-26{stroke:url(#linear-gradient-26);}.cls-27{stroke:url(#linear-gradient-27);}.cls-28{stroke:url(#linear-gradient-28);}.cls-29{stroke:url(#linear-gradient-29);}.cls-30{stroke:url(#linear-gradient-30);}.cls-31{stroke:url(#linear-gradient-31);}.cls-32{stroke:url(#linear-gradient-32);}.cls-33{stroke:url(#linear-gradient-33);}.cls-34{stroke:url(#linear-gradient-34);}.cls-35{stroke:url(#linear-gradient-35);}.cls-36{stroke:url(#linear-gradient-36);}.cls-37{stroke:url(#linear-gradient-37);}.cls-38{stroke:url(#linear-gradient-38);}.cls-39{stroke:url(#linear-gradient-39);}.cls-40{stroke:url(#linear-gradient-40);}.cls-41{stroke:url(#linear-gradient-41);}.cls-42{stroke:url(#linear-gradient-42);}.cls-43{stroke:url(#linear-gradient-43);}.cls-44{stroke:url(#linear-gradient-44);}.cls-45{stroke:url(#linear-gradient-45);}.cls-46{stroke:url(#linear-gradient-46);}.cls-47{stroke:url(#linear-gradient-47);}.cls-48{stroke:url(#linear-gradient-48);}.cls-49{stroke:url(#linear-gradient-49);}.cls-50{stroke:url(#linear-gradient-50);}.cls-51{stroke:url(#linear-gradient-51);}.cls-52{stroke:url(#linear-gradient-52);}.cls-53{stroke:url(#linear-gradient-53);}.cls-54{stroke:url(#linear-gradient-54);}.cls-55{stroke:url(#linear-gradient-55);}.cls-56{stroke:url(#linear-gradient-56);}.cls-57{stroke:url(#linear-gradient-57);}.cls-58{stroke:url(#linear-gradient-58);}.cls-59{stroke:url(#linear-gradient-59);}.cls-60{stroke:url(#linear-gradient-60);}.cls-61{stroke:url(#linear-gradient-61);}.cls-62{stroke:url(#linear-gradient-62);}.cls-63{stroke:url(#linear-gradient-63);}.cls-64{stroke:url(#linear-gradient-64);}.cls-65{stroke:url(#linear-gradient-65);}.cls-66{stroke:url(#linear-gradient-66);}.cls-67{stroke:url(#linear-gradient-67);}.cls-68{stroke:url(#linear-gradient-68);}.cls-69{stroke:url(#linear-gradient-69);}.cls-70{stroke:url(#linear-gradient-70);}.cls-71{stroke:url(#linear-gradient-71);}.cls-72{stroke:url(#linear-gradient-72);}.cls-73{stroke:url(#linear-gradient-73);}.cls-74{stroke:url(#linear-gradient-74);}.cls-75{stroke:url(#linear-gradient-75);}.cls-76{stroke:url(#linear-gradient-76);}.cls-77{stroke:url(#linear-gradient-77);}.cls-78{stroke:url(#linear-gradient-78);}.cls-79{stroke:url(#linear-gradient-79);}.cls-80{stroke:url(#linear-gradient-80);}.cls-81{stroke:url(#linear-gradient-81);}.cls-82{stroke:url(#linear-gradient-82);}.cls-83{stroke:url(#linear-gradient-83);}.cls-84{stroke:url(#linear-gradient-84);}</style><linearGradient id="linear-gradient" x1="297.21" y1="116.13" x2="334.13" y2="116.13" gradientUnits="userSpaceOnUse"><stop offset="0" stop-color="#55f3ff"/><stop offset="0.46" stop-color="#30ccf5"/><stop offset="1" stop-color="#0098e9"/></linearGradient><linearGradient id="linear-gradient-2" x1="303.17" y1="114.92" x2="338.63" y2="114.92" xlink:href="#linear-gradient"/><linearGradient id="linear-gradient-3" x1="309.13" y1="113.7" x2="343.13" y2="113.7" xlink:href="#linear-gradient"/><linearGradient id="linear-gradient-4" x1="315.08" y1="112.49" x2="347.62" y2="112.49" xlink:href="#linear-gradient"/><linearGradient id="linear-gradient-5" x1="321.03" y1="111.27" x2="352.12" y2="111.27" xlink:href="#linear-gradient"/><linearGradient id="linear-gradient-6" x1="326.98" y1="110.05" x2="356.62" y2="110.05" xlink:href="#linear-gradient"/><linearGradient id="linear-gradient-7" x1="332.88" y1="108.84" x2="361.07" y2="108.84" xlink:href="#linear-gradient"/><linearGradient id="linear-gradient-8" x1="338.82" y1="107.62" x2="365.57" y2="107.62" xlink:href="#linear-gradient"/><linearGradient id="linear-gradient-9" x1="344.76" y1="106.41" x2="370.06" y2="106.41" xlink:href="#linear-gradient"/><linearGradient id="linear-gradient-10" x1="350.69" y1="105.19" x2="374.56" y2="105.19" xlink:href="#linear-gradient"/><linearGradient id="linear-gradient-11" x1="356.62" y1="103.97" x2="379.07" y2="103.97" xlink:href="#linear-gradient"/><linearGradient id="linear-gradient-12" x1="362.55" y1="102.76" x2="383.57" y2="102.76" xlink:href="#linear-gradient"/><linearGradient id="linear-gradient-13" x1="368.47" y1="101.54" x2="388.09" y2="101.54" xlink:href="#linear-gradient"/><linearGradient id="linear-gradient-14" x1="374.38" y1="100.33" x2="392.61" y2="100.33" xlink:href="#linear-gradient"/><linearGradient id="linear-gradient-15" x1="380.33" y1="99.11" x2="397.18" y2="99.11" xlink:href="#linear-gradient"/><linearGradient id="linear-gradient-16" x1="386.21" y1="97.9" x2="401.7" y2="97.9" xlink:href="#linear-gradient"/><linearGradient id="linear-gradient-17" x1="392.06" y1="96.68" x2="406.24" y2="96.68" xlink:href="#linear-gradient"/><linearGradient id="linear-gradient-18" x1="312.14" y1="93.38" x2="405.42" y2="93.38" xlink:href="#linear-gradient"/><linearGradient id="linear-gradient-19" x1="313.75" y1="90.33" x2="402.9" y2="90.33" xlink:href="#linear-gradient"/><linearGradient id="linear-gradient-20" x1="315.35" y1="87.29" x2="400.38" y2="87.29" xlink:href="#linear-gradient"/><linearGradient id="linear-gradient-21" x1="316.95" y1="84.24" x2="397.87" y2="84.24" xlink:href="#linear-gradient"/><linearGradient id="linear-gradient-22" x1="318.54" y1="81.2" x2="395.35" y2="81.2" xlink:href="#linear-gradient"/><linearGradient id="linear-gradient-23" x1="320.12" y1="78.16" x2="392.83" y2="78.16" xlink:href="#linear-gradient"/><linearGradient id="linear-gradient-24" x1="321.7" y1="75.12" x2="390.31" y2="75.12" xlink:href="#linear-gradient"/><linearGradient id="linear-gradient-25" x1="323.27" y1="72.09" x2="387.8" y2="72.09" xlink:href="#linear-gradient"/><linearGradient id="linear-gradient-26" x1="324.83" y1="69.05" x2="385.28" y2="69.05" xlink:href="#linear-gradient"/><linearGradient id="linear-gradient-27" x1="326" y1="66.03" x2="383.5" y2="66.03" xlink:href="#linear-gradient"/><linearGradient id="linear-gradient-28" x1="326.62" y1="63.01" x2="381.8" y2="63.01" xlink:href="#linear-gradient"/><linearGradient id="linear-gradient-29" x1="327.18" y1="59.99" x2="380.15" y2="59.99" xlink:href="#linear-gradient"/><linearGradient id="linear-gradient-30" x1="327.72" y1="56.97" x2="378.54" y2="56.97" xlink:href="#linear-gradient"/><linearGradient id="linear-gradient-31" x1="328.24" y1="53.95" x2="376.92" y2="53.95" xlink:href="#linear-gradient"/><linearGradient id="linear-gradient-32" x1="328.75" y1="50.93" x2="375.32" y2="50.93" xlink:href="#linear-gradient"/><linearGradient id="linear-gradient-33" x1="329.17" y1="47.92" x2="373.78" y2="47.92" xlink:href="#linear-gradient"/><linearGradient id="linear-gradient-34" x1="329.24" y1="44.91" x2="372.59" y2="44.91" xlink:href="#linear-gradient"/><linearGradient id="linear-gradient-35" x1="315.3" y1="27.84" x2="362.49" y2="27.84" xlink:href="#linear-gradient"/><linearGradient id="linear-gradient-36" x1="305.68" y1="27.41" x2="358.78" y2="27.41" xlink:href="#linear-gradient"/><linearGradient id="linear-gradient-37" x1="295.36" y1="26.98" x2="355.71" y2="26.98" xlink:href="#linear-gradient"/><linearGradient id="linear-gradient-38" x1="285.04" y1="26.54" x2="352.64" y2="26.54" xlink:href="#linear-gradient"/><linearGradient id="linear-gradient-39" x1="274.71" y1="26.11" x2="349.56" y2="26.11" xlink:href="#linear-gradient"/><linearGradient id="linear-gradient-40" x1="264.38" y1="25.68" x2="346.47" y2="25.68" xlink:href="#linear-gradient"/><linearGradient id="linear-gradient-41" x1="254.04" y1="25.24" x2="343.38" y2="25.24" xlink:href="#linear-gradient"/><linearGradient id="linear-gradient-42" x1="243.71" y1="24.8" x2="340.29" y2="24.8" xlink:href="#linear-gradient"/><linearGradient id="linear-gradient-43" x1="233.37" y1="24.37" x2="337.2" y2="24.37" xlink:href="#linear-gradient"/><linearGradient id="linear-gradient-44" x1="223.04" y1="23.93" x2="334.11" y2="23.93" xlink:href="#linear-gradient"/><linearGradient id="linear-gradient-45" x1="212.7" y1="23.63" x2="331.01" y2="23.63" xlink:href="#linear-gradient"/><linearGradient id="linear-gradient-46" x1="202.37" y1="23.19" x2="327.92" y2="23.19" xlink:href="#linear-gradient"/><linearGradient id="linear-gradient-47" x1="192.03" y1="22.75" x2="324.83" y2="22.75" xlink:href="#linear-gradient"/><linearGradient id="linear-gradient-48" x1="181.7" y1="22.32" x2="321.74" y2="22.32" xlink:href="#linear-gradient"/><linearGradient id="linear-gradient-49" x1="171.28" y1="21.88" x2="318.75" y2="21.88" xlink:href="#linear-gradient"/><linearGradient id="linear-gradient-50" x1="160.58" y1="21.44" x2="316.06" y2="21.44" xlink:href="#linear-gradient"/><linearGradient id="linear-gradient-51" x1="149.88" y1="20.99" x2="313.37" y2="20.99" xlink:href="#linear-gradient"/><linearGradient id="linear-gradient-52" x1="13.62" y1="73.05" x2="320" y2="73.05" xlink:href="#linear-gradient"/><linearGradient id="linear-gradient-53" x1="13.36" y1="76.91" x2="317.35" y2="76.91" xlink:href="#linear-gradient"/><linearGradient id="linear-gradient-54" x1="13.11" y1="80.76" x2="315.32" y2="80.76" xlink:href="#linear-gradient"/><linearGradient id="linear-gradient-55" x1="12.85" y1="84.62" x2="313.48" y2="84.62" xlink:href="#linear-gradient"/><linearGradient id="linear-gradient-56" x1="12.6" y1="88.48" x2="311.73" y2="88.48" xlink:href="#linear-gradient"/><linearGradient id="linear-gradient-57" x1="12.34" y1="92.34" x2="310.01" y2="92.34" xlink:href="#linear-gradient"/><linearGradient id="linear-gradient-58" x1="12.08" y1="96.2" x2="308.33" y2="96.2" xlink:href="#linear-gradient"/><linearGradient id="linear-gradient-59" x1="11.64" y1="100.05" x2="306.81" y2="100.05" xlink:href="#linear-gradient"/><linearGradient id="linear-gradient-60" x1="11.15" y1="103.91" x2="305.36" y2="103.91" xlink:href="#linear-gradient"/><linearGradient id="linear-gradient-61" x1="10.65" y1="107.77" x2="303.91" y2="107.77" xlink:href="#linear-gradient"/><linearGradient id="linear-gradient-62" x1="10.15" y1="111.63" x2="302.46" y2="111.63" xlink:href="#linear-gradient"/><linearGradient id="linear-gradient-63" x1="9.65" y1="115.49" x2="301.02" y2="115.49" xlink:href="#linear-gradient"/><linearGradient id="linear-gradient-64" x1="9.15" y1="119.35" x2="299.58" y2="119.35" xlink:href="#linear-gradient"/><linearGradient id="linear-gradient-65" x1="8.65" y1="123.2" x2="298.14" y2="123.2" xlink:href="#linear-gradient"/><linearGradient id="linear-gradient-66" x1="7.4" y1="126.2" x2="295.94" y2="126.2" xlink:href="#linear-gradient"/><linearGradient id="linear-gradient-67" x1="3.89" y1="126.57" x2="291.46" y2="126.57" xlink:href="#linear-gradient"/><linearGradient id="linear-gradient-68" x1="0" y1="126.94" x2="287.32" y2="126.94" xlink:href="#linear-gradient"/><linearGradient id="linear-gradient-69" x1="2.55" y1="127.06" x2="282.3" y2="127.06" xlink:href="#linear-gradient"/><linearGradient id="linear-gradient-70" x1="5.1" y1="127.17" x2="277.28" y2="127.17" xlink:href="#linear-gradient"/><linearGradient id="linear-gradient-71" x1="6.8" y1="127.29" x2="273.15" y2="127.29" xlink:href="#linear-gradient"/><linearGradient id="linear-gradient-72" x1="8.24" y1="127.4" x2="269.24" y2="127.4" xlink:href="#linear-gradient"/><linearGradient id="linear-gradient-73" x1="9.68" y1="127.52" x2="265.33" y2="127.52" xlink:href="#linear-gradient"/><linearGradient id="linear-gradient-74" x1="11.12" y1="127.63" x2="261.42" y2="127.63" xlink:href="#linear-gradient"/><linearGradient id="linear-gradient-75" x1="12.57" y1="127.75" x2="257.51" y2="127.75" xlink:href="#linear-gradient"/><linearGradient id="linear-gradient-76" x1="14.02" y1="127.86" x2="253.59" y2="127.86" xlink:href="#linear-gradient"/><linearGradient id="linear-gradient-77" x1="15.47" y1="127.98" x2="249.68" y2="127.98" xlink:href="#linear-gradient"/><linearGradient id="linear-gradient-78" x1="16.93" y1="128.1" x2="245.77" y2="128.1" xlink:href="#linear-gradient"/><linearGradient id="linear-gradient-79" x1="18.36" y1="128.21" x2="241.9" y2="128.21" xlink:href="#linear-gradient"/><linearGradient id="linear-gradient-80" x1="19.71" y1="128.31" x2="238.11" y2="128.31" xlink:href="#linear-gradient"/><linearGradient id="linear-gradient-81" x1="20.99" y1="128.43" x2="234.39" y2="128.43" xlink:href="#linear-gradient"/><linearGradient id="linear-gradient-82" x1="22.21" y1="128.54" x2="230.74" y2="128.54" xlink:href="#linear-gradient"/><linearGradient id="linear-gradient-83" x1="23.4" y1="128.66" x2="227.16" y2="128.66" xlink:href="#linear-gradient"/><linearGradient id="linear-gradient-84" x1="24.59" y1="128.78" x2="223.6" y2="128.78" xlink:href="#linear-gradient"/></defs><g id="Layer_2" data-name="Layer 2"><g id="Layer_3" data-name="Layer 3"><path class="cls-1" d="M315.73,62.33c-8.87,0-18.4,28.29-18,53.59.38,25.09,10.64,54.35,19.71,54,10-.37,19.6-37.05,15-69C330.37,86.46,323.89,62.39,315.73,62.33Z"/><path class="cls-2" d="M320.77,62.51c-8.51,0-17.54,27.63-17.08,52.29.45,24.39,10.35,52.86,19,52.52C332.35,167,341.4,131.4,337,100.4,334.93,86.09,328.6,62.54,320.77,62.51Z"/><path class="cls-3" d="M325.8,62.69c-8.14,0-16.68,27-16.15,51,.51,23.7,10.05,51.37,18.37,51,9.19-.36,17.75-34.8,13.48-64.83C339.49,85.72,333.31,62.7,325.8,62.69Z"/><path class="cls-4" d="M330.84,62.87c-7.78,0-15.83,26.29-15.23,49.68.58,23,9.76,49.88,17.7,49.55,8.76-.36,16.82-33.68,12.71-62.74C344.05,85.34,338,62.86,330.84,62.87Z"/><path class="cls-5" d="M335.88,63c-7.42,0-15,25.64-14.31,48.39.64,22.3,9.46,48.39,17,48.06,8.33-.35,15.9-32.55,11.94-60.65C348.61,85,342.73,63,335.88,63Z"/><path class="cls-6" d="M340.91,63.22c-7.05.05-14.11,25-13.37,47.09.7,21.6,9.16,46.9,16.35,46.58,7.9-.35,15-31.44,11.18-58.56C353.17,84.59,347.44,63.18,340.91,63.22Z"/><path class="cls-7" d="M345.9,63.4c-6.69.06-13.26,24.3-12.45,45.78.76,20.91,8.86,45.41,15.68,45.1,7.47-.35,14-30.31,10.41-56.47C357.68,84.22,352.1,63.33,345.9,63.4Z"/><path class="cls-8" d="M350.93,63.57c-6.33.09-12.4,23.64-11.53,44.49.83,20.21,8.57,43.92,15,43.61,7-.34,13.12-29.19,9.65-54.38C362.23,83.85,356.8,63.49,350.93,63.57Z"/><path class="cls-9" d="M356,63.75c-6,.11-11.54,23-10.6,43.19.89,19.51,8.27,42.43,14.33,42.12,6.62-.34,12.2-28.07,8.89-52.29C366.79,83.47,361.51,63.65,356,63.75Z"/><path class="cls-10" d="M361,63.93c-5.59.12-10.69,22.31-9.67,41.88.95,18.82,8,40.95,13.66,40.64,6.19-.33,11.28-26.94,8.12-50.19C371.34,83.1,366.22,63.81,361,63.93Z"/><path class="cls-11" d="M366,64.11c-5.24.14-9.83,21.64-8.75,40.58,1,18.11,7.68,39.45,13,39.15,5.76-.32,10.35-25.82,7.35-48.1C375.9,82.72,370.92,64,366,64.11Z"/><path class="cls-12" d="M371.07,64.28c-4.87.17-9,21-7.82,39.29,1.07,17.41,7.37,38,12.31,37.66,5.33-.32,9.42-24.69,6.59-46C380.46,82.35,375.64,64.12,371.07,64.28Z"/><path class="cls-13" d="M376.11,64.46c-4.51.19-8.12,20.32-6.9,38,1.14,16.71,7.08,36.47,11.64,36.17,4.9-.31,8.5-23.57,5.82-43.92C385,82,380.35,64.28,376.11,64.46Z"/><path class="cls-14" d="M381.15,64.64c-4.14.2-7.26,19.65-6,36.68,1.2,16,6.78,35,11,34.7,4.48-.32,7.58-22.46,5.07-41.83C389.59,81.6,385.07,64.44,381.15,64.64Z"/><path class="cls-15" d="M386.24,64.82c-3.78.22-6.41,19-5,35.38,1.26,15.32,6.48,33.5,10.29,33.21,4.05-.31,6.65-21.33,4.29-39.74C394.21,81.23,389.83,64.6,386.24,64.82Z"/><path class="cls-16" d="M391.28,65c-3.42.25-5.55,18.33-4.12,34.09,1.32,14.62,6.19,32,9.62,31.72,3.62-.3,5.73-20.21,3.53-37.65C398.77,80.86,394.54,64.75,391.28,65Z"/><path class="cls-17" d="M396.32,65.17c-3.06.27-4.7,17.66-3.2,32.79,1.39,13.92,5.89,30.51,8.94,30.23s4.81-19.08,2.77-35.56C403.33,80.48,399.25,64.91,396.32,65.17Z"/><path class="cls-18" d="M314.3,42.83a52.59,52.59,0,0,1,10.1,12.5c5.49,9.49,6.93,19,7.21,31,.54,22.59-3.26,43.47-7,58.42l35.1-15.14a104.45,104.45,0,0,0,34.14-7.94,86.25,86.25,0,0,1-3.05-13.88,88.4,88.4,0,0,1-.7-15.68c.27-6.76,3.09-33.64,7.08-33.73,1.65,0,4,4.48,7.08,23.6.64-3.71,2.06-14.69-3.78-25.14a31.07,31.07,0,0,0-9.12-10.54,30.33,30.33,0,0,0-8.15-4.17,98,98,0,0,1-10.33.41,101.09,101.09,0,0,1-12.31-.9,64.56,64.56,0,0,1-22.8,4.9A64.42,64.42,0,0,1,314.3,42.83Z"/><path class="cls-19" d="M315.74,42.55a51.31,51.31,0,0,1,9.33,11.91c5,9,6.28,18.09,6.44,29.42a196.66,196.66,0,0,1-2.8,34.69c-1.15,7.66-2.56,14.66-3.92,20.66,3-1.16,5.94-2.35,8.86-3.57l25.1-11a99.57,99.57,0,0,0,14.05-1.77,100,100,0,0,0,18.69-5.69,83.1,83.1,0,0,1-2.77-13,79.54,79.54,0,0,1-.55-14.74c.32-6.37,3-31.58,6.85-31.72,1.6-.06,3.83,4.14,6.77,22,.62-3.57,2-14-3.48-23.86a29.21,29.21,0,0,0-8.53-10,30.31,30.31,0,0,0-8-4.13c-2.93.19-6.15.3-9.63.25h-.58a117.92,117.92,0,0,1-12.18-.82,60.49,60.49,0,0,1-21.47,4.75A61.62,61.62,0,0,1,315.74,42.55Z"/><path class="cls-20" d="M317.18,42.27a49.54,49.54,0,0,1,8.55,11.31c4.63,8.55,5.64,17.15,5.68,27.83a187.06,187.06,0,0,1-3,32.75c-1,7.21-2.28,13.85-3.42,19.53,2.89-1,5.77-2.07,8.56-3.19l24.24-10.75a97.28,97.28,0,0,0,13.45-1.62,96.76,96.76,0,0,0,17.9-5.37,78.9,78.9,0,0,1-2.49-12.2,72,72,0,0,1-.41-13.79c.39-6,3-29.53,6.62-29.72,1.55-.08,3.68,3.8,6.47,20.47.6-3.44,1.87-13.25-3.19-22.59a27.33,27.33,0,0,0-7.92-9.54,30.89,30.89,0,0,0-8-4.1c-2.88.12-6.06.17-9.51.1h-.57c-4.48-.11-8.54-.37-12.05-.74a56.59,56.59,0,0,1-20.14,4.59A58.79,58.79,0,0,1,317.18,42.27Z"/><path class="cls-21" d="M318.62,42a47.44,47.44,0,0,1,7.77,10.72c4.21,8.07,5,16.2,4.92,26.24A174,174,0,0,1,328,109.76c-.92,6.76-2,13-2.93,18.4,2.81-.83,5.61-1.8,8.28-2.82l23.37-10.53a89,89,0,0,0,12.85-1.47,91.15,91.15,0,0,0,17.1-5,76.43,76.43,0,0,1-2.2-11.36,65.59,65.59,0,0,1-.27-12.85c.45-5.59,3-27.48,6.39-27.71,1.5-.11,3.54,3.45,6.17,18.9.57-3.3,1.78-12.52-2.9-21.3a25.09,25.09,0,0,0-7.32-9,31.3,31.3,0,0,0-7.87-4.08c-2.84,0-6,0-9.39-.06h-.57c-4.46-.14-8.48-.35-11.92-.66A52.57,52.57,0,0,1,338,44.57,56,56,0,0,1,318.62,42Z"/><path class="cls-22" d="M320.05,41.72a45.72,45.72,0,0,1,7,10.12c3.77,7.6,4.4,15.25,4.15,24.65a163.46,163.46,0,0,1-3.52,28.86c-.81,6.31-1.73,12.21-2.44,17.27a77.47,77.47,0,0,0,8-2.44l22.51-10.3a84.27,84.27,0,0,0,28.55-6,71.14,71.14,0,0,1-1.92-10.52,58.53,58.53,0,0,1-.13-11.91c.52-5.2,2.93-25.43,6.16-25.7,1.46-.13,3.39,3.11,5.86,17.33.56-3.16,1.7-11.79-2.6-20A23.27,23.27,0,0,0,385,44.48c-2.68-1.93-5.36-3.61-7.79-4-2.74-.49-5.89-.1-9.27-.22l-.56,0c-4.44-.16-8.42-.32-11.79-.57a49,49,0,0,1-17.48,4.28A53.78,53.78,0,0,1,320.05,41.72Z"/><path class="cls-23" d="M321.49,41.44A44.61,44.61,0,0,1,327.72,51c3.34,7.13,3.77,14.31,3.39,23a152.15,152.15,0,0,1-3.77,26.92c-.69,5.87-1.44,11.4-1.94,16.15a57.68,57.68,0,0,0,7.71-2.07L354.76,105a80.86,80.86,0,0,0,11.63-1.17,82.25,82.25,0,0,0,15.53-4.4,70,70,0,0,1-1.65-9.68,52.79,52.79,0,0,1,0-11c.59-4.81,2.89-23.39,5.93-23.71,1.41-.14,3.24,2.78,5.56,15.78.54-3,1.61-11.08-2.3-18.75a21.63,21.63,0,0,0-6.12-8c-2.58-1.86-5.21-3.53-7.69-4-2.69-.52-5.81-.23-9.16-.37l-.55,0c-4.42-.2-8.37-.31-11.66-.49a45.24,45.24,0,0,1-16.15,4.12A50.9,50.9,0,0,1,321.49,41.44Z"/><path class="cls-24" d="M322.93,41.16a44.13,44.13,0,0,1,5.46,8.94c2.91,6.65,3.13,13.36,2.62,21.46a142.94,142.94,0,0,1-4,25c-.58,5.41-1.16,10.58-1.45,15a43.82,43.82,0,0,0,7.43-1.69L353.76,100a75,75,0,0,0,11-1,77.78,77.78,0,0,0,14.74-4.08,70.51,70.51,0,0,1-1.36-8.84,46.13,46.13,0,0,1,.16-10c.64-4.42,2.85-21.34,5.7-21.7,1.37-.17,3.09,2.43,5.26,14.21.51-2.9,1.52-10.35-2-17.46a19.63,19.63,0,0,0-5.51-7.55c-2.48-1.78-5.08-3.44-7.6-4s-5.73-.37-9.05-.54l-.53,0c-4.41-.22-8.32-.29-11.55-.41a41.12,41.12,0,0,1-14.81,4A48.41,48.41,0,0,1,322.93,41.16Z"/><path class="cls-25" d="M324.36,40.89a43.43,43.43,0,0,1,4.69,8.33c2.48,6.19,2.49,12.42,1.85,19.88a131.69,131.69,0,0,1-4.24,23c-.47,5-.88,9.77-1,13.89a35,35,0,0,0,7.14-1.32l19.92-9.62a71.13,71.13,0,0,0,10.42-.87,73.09,73.09,0,0,0,13.95-3.75,65.85,65.85,0,0,1-1.08-8,38.93,38.93,0,0,1,.31-9.07c.7-4,2.8-19.31,5.46-19.7,1.32-.19,2.95,2.09,4.95,12.65.5-2.77,1.43-9.63-1.71-16.19a17.72,17.72,0,0,0-4.91-7c-2.38-1.71-4.93-3.36-7.51-4s-5.64-.5-8.93-.69l-.52,0c-4.39-.25-8.27-.26-11.42-.32a37.46,37.46,0,0,1-13.48,3.81A46.28,46.28,0,0,1,324.36,40.89Z"/><path class="cls-26" d="M325.8,40.61a44,44,0,0,1,3.91,7.74c2.05,5.73,1.86,11.48,1.09,18.28a121.86,121.86,0,0,1-4.49,21.1,116.88,116.88,0,0,0-.46,12.76,28.33,28.33,0,0,0,6.86-.95l19.06-9.4a65.15,65.15,0,0,0,9.8-.71A67.67,67.67,0,0,0,374.73,86a66.5,66.5,0,0,1-.79-7.16,33,33,0,0,1,.45-8.13c.76-3.64,2.76-17.26,5.23-17.69,1.27-.22,2.8,1.75,4.65,11.08.48-2.63,1.34-8.9-1.42-14.91a16,16,0,0,0-4.31-6.54,22.93,22.93,0,0,0-7.41-3.92,55,55,0,0,0-8.82-.84l-.52,0c-4.36-.28-8.2-.25-11.28-.25a33.63,33.63,0,0,1-12.15,3.66A44.31,44.31,0,0,1,325.8,40.61Z"/><path class="cls-27" d="M328,40.34a46.84,46.84,0,0,1,3.15,7.15c1.61,5.26,1.22,10.53.32,16.69a111.74,111.74,0,0,1-4.73,19.15,77.54,77.54,0,0,0,0,11.63,23.68,23.68,0,0,0,6.57-.57l18.2-9.17a60.87,60.87,0,0,0,9.2-.56,63,63,0,0,0,12.37-3.11c-.2-1.66-.43-3.79-.51-6.32a27.75,27.75,0,0,1,.59-7.18c.83-3.26,2.73-15.23,5-15.69,1.22-.24,2.64,1.4,4.34,9.52.45-2.5,1.25-8.18-1.13-13.63a14.33,14.33,0,0,0-3.7-6,23.48,23.48,0,0,0-7.33-3.89,50,50,0,0,0-8.69-1l-.51,0c-4.35-.31-8.16-.23-11.16-.16a30,30,0,0,1-10.82,3.5A42.44,42.44,0,0,1,328,40.34Z"/><path class="cls-28" d="M330.21,40a50.56,50.56,0,0,1,2.37,6.56c1.18,4.8.58,9.58-.44,15.09a102.82,102.82,0,0,1-5,17.21,52.65,52.65,0,0,0,.52,10.5,19.64,19.64,0,0,0,6.29-.2l17.33-8.94a56.31,56.31,0,0,0,8.6-.41,57.7,57.7,0,0,0,11.58-2.79c-.1-1.44-.23-3.29-.23-5.47a22.59,22.59,0,0,1,.73-6.25c.89-2.86,2.69-13.19,4.78-13.68,1.17-.27,2.49,1.06,4,8,.43-2.37,1.16-7.46-.84-12.35a12.78,12.78,0,0,0-3.1-5.55,24.16,24.16,0,0,0-7.23-3.85,46.75,46.75,0,0,0-8.58-1.16l-.5,0a87.48,87.48,0,0,0-11-.08A26.55,26.55,0,0,1,340,39.94,42.12,42.12,0,0,1,330.21,40Z"/><path class="cls-29" d="M332.51,39.71c.37,1.52,1.16,3.47,1.59,6,.75,4.34-.05,8.64-1.2,13.5a92.53,92.53,0,0,1-5.22,15.27,37.3,37.3,0,0,0,1,9.37,17.09,17.09,0,0,0,6,.17l16.48-8.71a51.47,51.47,0,0,0,8-.26A52.55,52.55,0,0,0,370,72.54c0-1.22,0-2.78.06-4.63a18.13,18.13,0,0,1,.87-5.3c1-2.47,2.65-11.17,4.55-11.67,1.13-.31,2.35.71,3.73,6.38a21.15,21.15,0,0,0-.53-11.07,11.53,11.53,0,0,0-2.5-5A25.18,25.18,0,0,0,369,37.38a43.62,43.62,0,0,0-8.46-1.31L360,36a71.23,71.23,0,0,0-10.9,0A23.23,23.23,0,0,1,341,39.22,43.1,43.1,0,0,1,332.51,39.71Z"/><path class="cls-30" d="M334.83,39.34c.15,1.43.65,3.19.82,5.37.3,3.89-.7,7.69-2,11.91a83.6,83.6,0,0,1-5.46,13.32,26.39,26.39,0,0,0,1.52,8.25,15.19,15.19,0,0,0,5.71.55l15.61-8.49a46.64,46.64,0,0,0,7.38-.11,47.51,47.51,0,0,0,10-2.15c.1-1,.19-2.28.34-3.79a13.87,13.87,0,0,1,1-4.35c1-2.09,2.62-9.15,4.32-9.67,1.08-.34,2.2.37,3.43,4.82a20.09,20.09,0,0,0-.24-9.79,10.28,10.28,0,0,0-1.9-4.55,26.27,26.27,0,0,0-7-3.79A40.92,40.92,0,0,0,360,35.39l-.49,0a57.86,57.86,0,0,0-10.77.09,20.06,20.06,0,0,1-6.82,3A48.08,48.08,0,0,1,334.83,39.34Z"/><path class="cls-31" d="M337.14,39c-.08,1.33.13,2.91.05,4.77-.15,3.45-1.35,6.75-2.74,10.32a76.39,76.39,0,0,1-5.69,11.38,19.38,19.38,0,0,0,2,7.12,13.92,13.92,0,0,0,5.43.92l14.75-8.26a41.51,41.51,0,0,0,6.77,0,42.55,42.55,0,0,0,9.21-1.82c.21-.79.4-1.78.62-3a10.47,10.47,0,0,1,1.16-3.4c1.09-1.7,2.57-7.13,4.09-7.67,1-.37,2,0,3.13,3.26a19.86,19.86,0,0,0,.05-8.52,9.49,9.49,0,0,0-1.3-4,27.27,27.27,0,0,0-7-3.76,38.5,38.5,0,0,0-8.23-1.64l-.47,0a49,49,0,0,0-10.65.17,17.1,17.1,0,0,1-5.49,2.88C340.52,38.4,338.54,38.63,337.14,39Z"/><path class="cls-32" d="M339.44,38.53c-.3,1.24-.4,2.63-.72,4.18a35.75,35.75,0,0,1-3.5,8.73,71.17,71.17,0,0,1-5.94,9.43,14.93,14.93,0,0,0,2.5,6,13,13,0,0,0,5.14,1.3l13.89-8a35,35,0,0,0,6.16.2,37.62,37.62,0,0,0,8.43-1.5,16.67,16.67,0,0,0,.9-2.12,7.94,7.94,0,0,1,1.3-2.46c1.15-1.3,2.53-5.11,3.86-5.66,1-.41,1.9-.31,2.82,1.69a20.8,20.8,0,0,0,.35-7.23,9.3,9.3,0,0,0-.7-3.54,28.55,28.55,0,0,0-6.87-3.74A36.22,36.22,0,0,0,359,34l-.47,0a42.57,42.57,0,0,0-10.51.25,15,15,0,0,1-4.16,2.73C342.07,37.63,340.56,38.05,339.44,38.53Z"/><path class="cls-33" d="M341.68,38.11c-.52,1.14-.95,2.34-1.49,3.58a43.36,43.36,0,0,1-4.27,7.14,66.15,66.15,0,0,1-6.18,7.49,12.34,12.34,0,0,0,3,4.86,12.63,12.63,0,0,0,4.86,1.68l13-7.81a31.06,31.06,0,0,0,13.19-.84A8.59,8.59,0,0,0,365,52.94a7.59,7.59,0,0,1,1.45-1.52c1.22-.91,2.47-3.1,3.62-3.66.93-.45,1.76-.65,2.52.14a26.56,26.56,0,0,0,.64-6,12.13,12.13,0,0,0-.09-3,31,31,0,0,0-6.77-3.7,34.46,34.46,0,0,0-8-1.95l-.46-.05a36.32,36.32,0,0,0-10.39.34,14.85,14.85,0,0,1-2.83,2.57C343.56,36.86,342.53,37.47,341.68,38.11Z"/><path class="cls-34" d="M329.9,51.78a13,13,0,0,0,3.5,3.73,12.84,12.84,0,0,0,4.57,2L350.13,50a26.25,26.25,0,0,0,20.46-4.45L372,38.29a32.75,32.75,0,0,0-14.56-5.77,32.42,32.42,0,0,0-10.71.36c-.93,1.57-2,3.18-3.13,4.81A65.77,65.77,0,0,1,329.9,51.78Z"/><path class="cls-35" d="M315.81,7.89q.12,6.26.33,12.64.18,5.56.43,11c.16,3.64.35,7.24.55,10.81a54.06,54.06,0,0,0,9.81,3.72,53,53,0,0,0,15.14,1.86,53.36,53.36,0,0,0,19.7-4.26,81.14,81.14,0,0,0-8.24-11.39,80.3,80.3,0,0,0-14.41-13.07,79.11,79.11,0,0,0-12.69-7.31A81,81,0,0,0,315.81,7.89Z"/><path class="cls-36" d="M330.61,18.2c3.87,2,8,3.68,11.47,5.67a36.66,36.66,0,0,1,6.47,4.3c.64,1.09,1.15,2.22,1.82,3.24,3.07,4.69,5.95,8.55,7.67,11.83-1.51.39-3.38.84-5.6,1.27-3.42.66-7.15,1.61-10.8,2.18-2,.19-4.16.31-6.39.34a79,79,0,0,1-14.74-1.24c-1-.17-1.9-.36-2.81-.56a95.21,95.21,0,0,1-11.49-3.42c.3-3.71,1.19-7.47,1.44-11.33.21-3.41-.08-6.92,0-10.51.07-4,.05-8.06.15-12a79.3,79.3,0,0,1,10.38,3.6C322.06,13.19,326,15.82,330.61,18.2Z"/><path class="cls-37" d="M322.76,17.18c4.87,1.93,10.32,3,14.89,4.85,3.74,1.49,7,2.91,8.58,4.25a45,45,0,0,0,1.64,4.25c2.59,4.91,5.52,8.8,7.11,12.27-1.68.21-3.8.47-6.36.75-4.22.45-8.54,1.62-12.28,2.31-2.32.15-4.74.24-7.25.25a115.63,115.63,0,0,1-16.76-1.21c-1.09-.16-2.16-.33-3.19-.52-5.28-1-9.74-2.23-13.19-3.13a83.48,83.48,0,0,1,3.43-11.84,86.13,86.13,0,0,1,.41-10c.28-3.83.36-7.66.64-11.45a77.55,77.55,0,0,1,10.13,3.19C314.38,12.64,318.15,15.35,322.76,17.18Z"/><path class="cls-38" d="M314.91,16.15a93.17,93.17,0,0,1,18.32,4c4.84,1.47,8.91,2.92,10.67,4.2a43.59,43.59,0,0,0,1.47,5.27c2.21,5,5.08,9.05,6.54,12.71-1.83,0-4.22.08-7.12.22-5,.24-9.91,1.63-13.74,2.44-2.61.11-5.32.18-8.12.17A166.07,166.07,0,0,1,304.16,44c-1.22-.15-2.42-.3-3.59-.48-5.8-.87-10.82-2-14.88-2.85a72.34,72.34,0,0,1,5.42-12.34,55.89,55.89,0,0,1,.84-9.49c.47-3.61.65-7.25,1.11-10.85a78.22,78.22,0,0,1,21.85,8.15Z"/><path class="cls-39" d="M307.06,15.13c7.29,0,15.09,1.6,21.75,3.2,5.95,1.43,10.86,2.92,12.77,4.14a45.24,45.24,0,0,0,1.29,6.29c1.9,5.13,4.65,9.3,6,13.16-2-.16-4.64-.32-7.87-.31-5.82,0-11.29,1.64-15.22,2.56-2.9.08-5.9.12-9,.09-7.18-.06-14.13-.51-20.77-1.15-1.35-.13-2.68-.28-4-.44-6.33-.78-11.91-1.85-16.58-2.55a70.35,70.35,0,0,1,7.42-12.85c-.13-2.73.61-5.72,1.25-9s1-6.85,1.6-10.25a78.3,78.3,0,0,1,21.36,7.1Z"/><path class="cls-40" d="M299.21,14.09c8.37-.5,17.48.87,25.17,2.38,7.07,1.38,12.82,2.92,14.87,4.09.39,2.44.38,5,1.11,7.3,1.65,5.21,4.22,9.56,5.41,13.61a69.34,69.34,0,0,0-8.63-.84c-6.61-.23-12.66,1.66-16.69,2.69q-4.79.07-9.85,0c-7.79-.1-15.42-.53-22.78-1.12-1.48-.12-2.94-.25-4.38-.4-6.85-.7-13-1.66-18.27-2.27a74.81,74.81,0,0,1,9.41-13.35c-.11-2.5.83-5.31,1.67-8.48s1.27-6.45,2.08-9.66a78.89,78.89,0,0,1,20.88,6Z"/><path class="cls-41" d="M291.36,13c9.45-1,19.86.14,28.6,1.56,8.18,1.32,14.77,2.92,17,4,.33,2.78.21,5.63.93,8.32,1.41,5.27,3.79,9.8,4.84,14a58.32,58.32,0,0,0-9.38-1.36c-7.41-.47-14,1.67-18.17,2.82-3.47,0-7,0-10.71-.08-8.4-.14-16.7-.55-24.79-1.09-1.62-.11-3.21-.22-4.77-.36-7.38-.62-14.08-1.46-20-2a80.62,80.62,0,0,1,11.4-13.87c-.1-2.27,1-4.88,2.1-8,1-2.91,1.57-6,2.56-9.06a70.36,70.36,0,0,1,9.16,1.53A71.27,71.27,0,0,1,291.36,13Z"/><path class="cls-42" d="M283.51,12c10.53-1.54,22.24-.6,32,.73,9.28,1.26,16.72,2.93,19.06,4,.27,3.12.08,6.29.76,9.33,1.2,5.34,3.35,10.06,4.27,14.49a53.13,53.13,0,0,0-10.14-1.88c-8.2-.72-15.41,1.67-19.63,2.94q-5.66,0-11.59-.16c-9-.18-18-.58-26.79-1.06-1.75-.1-3.47-.2-5.17-.32-7.9-.54-15.16-1.28-21.66-1.68A88,88,0,0,1,258.05,24c-.1-2,1.22-4.46,2.51-7.46,1.16-2.68,1.87-5.63,3.05-8.47a73.38,73.38,0,0,1,8.91,1.12A70.24,70.24,0,0,1,283.51,12Z"/><path class="cls-43" d="M275.66,10.92c11.6-2.06,24.62-1.34,35.45-.1,10.4,1.2,18.69,2.93,21.17,3.94.21,3.45,0,7,.58,10.35,1,5.4,2.92,10.31,3.71,14.93a50.72,50.72,0,0,0-10.9-2.41c-9-1-16.79,1.69-21.11,3.07-4.05-.07-8.2-.14-12.45-.24-9.62-.22-19.25-.61-28.8-1-1.88-.08-3.73-.17-5.56-.27-8.43-.47-16.25-1.09-23.36-1.39a97.5,97.5,0,0,1,15.39-14.89c-.08-1.82,1.41-4,2.94-7,1.28-2.45,2.17-5.23,3.52-7.88a74.09,74.09,0,0,1,8.67.71A70.63,70.63,0,0,1,275.66,10.92Z"/><path class="cls-44" d="M267.81,9.88c12.68-2.58,27-2.09,38.88-.92,11.5,1.13,20.64,2.93,23.26,3.89.15,3.79-.16,7.62.41,11.36.83,5.48,2.48,10.56,3.14,15.37a48.75,48.75,0,0,0-11.66-2.93c-9.78-1.22-18.17,1.69-22.58,3.19q-6.51-.15-13.31-.32c-10.23-.26-20.53-.63-30.81-1-2-.07-4-.14-6-.23-9-.4-17.33-.9-25-1.1a106.74,106.74,0,0,1,17.37-15.39c-.07-1.6,1.57-3.62,3.36-6.45,1.41-2.22,2.48-4.83,4-7.28a74,74,0,0,1,8.43.3A71.65,71.65,0,0,1,267.81,9.88Z"/><path class="cls-45" d="M260,9.58c13.76-3.1,29.37-2.83,42.31-1.74,12.6,1.06,22.59,2.93,25.36,3.83.08,4.13-.26,8.29.23,12.38.65,5.56,2.05,10.81,2.57,15.82A48.3,48.3,0,0,0,318,36.41c-10.58-1.48-19.55,1.7-24,3.32l-14.18-.41c-10.85-.3-21.81-.65-32.82-1l-6.36-.2c-9.47-.32-18.41-.7-26.73-.81a119.55,119.55,0,0,1,19.37-15.9c-.07-1.36,1.72-3.21,3.78-5.94,1.51-2,2.78-4.42,4.48-6.68a77.69,77.69,0,0,1,8.19-.12A75.91,75.91,0,0,1,260,9.58Z"/><path class="cls-46" d="M252.11,9.56C266.13,3.51,283.86,6,297.84,7c13.72,1,24.55,2.93,27.46,3.78,0,4.47-.33,9,.05,13.4.5,5.63,1.62,11.06,2,16.26a48.48,48.48,0,0,0-13.17-4c-11.37-1.73-20.92,1.72-25.52,3.44l-15.05-.48c-11.45-.34-23.08-.71-34.82-.95l-6.75-.15c-10-.25-19.5-.52-28.43-.52A132.2,132.2,0,0,1,225,21.38c0-1.14,1.85-2.81,4.2-5.43,1.61-1.79,3.08-4,5-6.09,2.39-.3,5.08-.45,7.94-.53C245.29,9.25,248.94,10.93,252.11,9.56Z"/><path class="cls-47" d="M244.26,9.08c15.18-6.32,34.12-4.31,49.16-3.39,14.82.92,26.51,2.94,29.56,3.73,0,4.81-.4,9.62-.13,14.42.33,5.72,1.19,11.31,1.44,16.7A48.35,48.35,0,0,0,310.37,36c-12.16-2-22.3,1.72-27,3.56q-7.81-.3-15.91-.56c-12.06-.38-24.36-.73-36.84-.92L223.48,38c-10.52-.18-20.58-.33-30.12-.23a144.59,144.59,0,0,1,23.35-16.92c0-.91,2-2.44,4.63-4.93,1.69-1.59,3.38-3.61,5.45-5.49,2.33-.41,4.94-.7,7.69-.94C237.61,9.22,241.17,10.37,244.26,9.08Z"/><path class="cls-48" d="M236.41,8.32c17.4-2.8,36.5-5.06,52.59-4.21a225.26,225.26,0,0,1,31.65,3.68c-.09,5.14-.45,10.29-.3,15.43.18,5.82.75,11.56.87,17.14a49.23,49.23,0,0,0-14.68-5c-13-2.25-23.67,1.73-28.47,3.69-5.49-.24-11.09-.46-16.77-.65-12.68-.42-25.64-.75-38.85-.89l-7.53-.07c-11-.12-21.67-.14-31.82.06A159,159,0,0,1,208.45,20c0-.68,2.08-2.08,5-4.41,1.79-1.41,3.69-3.21,5.93-4.9,2.28-.52,4.8-1,7.45-1.35C229.93,8.92,233.19,8.84,236.41,8.32Z"/><path class="cls-49" d="M228.48,8c18.4-3.83,38.87-5.81,56-5a251.29,251.29,0,0,1,33.75,3.62c-.15,5.48-.5,11-.48,16.44,0,5.93.32,11.82.31,17.59a50.26,50.26,0,0,0-15.44-5.56c-13.74-2.51-25.05,1.75-29.94,3.82q-8.67-.42-17.64-.73c-13.29-.46-26.92-.78-40.85-.86l-7.93,0c-11.57,0-22.76,0-33.51.35a173.74,173.74,0,0,1,27.33-17.94c0-.45,2.2-1.76,5.47-3.91,1.88-1.23,4-2.8,6.41-4.3,2.22-.63,4.66-1.21,7.21-1.76C222.17,9,225.34,8.64,228.48,8Z"/><path class="cls-50" d="M220.26,7.66c19.35-5,41.24-6.57,59.43-5.85a278.05,278.05,0,0,1,35.85,3.57c-.21,5.82-.53,11.64-.65,17.46-.13,6-.12,12.06-.26,18a51.1,51.1,0,0,0-16.2-6.08C283.91,32,272,36.54,267,38.73q-9.11-.46-18.51-.81c-13.89-.5-28.19-.81-42.86-.83q-4.18,0-8.32,0-18.14.06-35.21.65a188.75,188.75,0,0,1,29.34-18.45c0-.22,2.3-1.46,5.88-3.4,2-1.07,4.29-2.39,6.9-3.71,2.16-.74,4.51-1.46,7-2.17C214.12,9.16,217.2,8.45,220.26,7.66Z"/><path class="cls-51" d="M151.49,37.87a204.29,204.29,0,0,1,31.33-18.95A231.07,231.07,0,0,1,212,7.33C232.26,1.11,255.65,0,274.9.65a312.25,312.25,0,0,1,38,3.53L312,22.65l-.83,18.47a52.32,52.32,0,0,0-16.95-6.61,54.69,54.69,0,0,0-32.89,4.07c-20.44-1.11-41.88-1.73-64.24-1.69Q173.59,36.92,151.49,37.87Z"/><path class="cls-52" d="M148.88,38.48c-3.17.46-6.45,1-9.81,1.61q-5.56,1-10.7,2.2a95.06,95.06,0,0,0-31.59-2.94C51,42.93,22.88,79.74,16.87,88Q15.55,93,14.24,97.89c23.51,4,48.57,7.37,75.08,9.79a981,981,0,0,0,142.18,2.63L296.76,79c-.1-.67-2.3-16.48,8.73-24.84a22.63,22.63,0,0,1,11.75-4.37A405,405,0,0,0,148.88,38.48Z"/><path class="cls-53" d="M121.08,46.63a87.83,87.83,0,0,0-29-1.52c-43.28,3.5-69.92,38.16-75.88,46.08q-1.1,4.94-2.21,9.87c23.52,4.28,48.71,7.93,75.47,10.55A895.29,895.29,0,0,0,234.53,114l61.61-30.09c-.18-.87-1.45-15,8-24.07a31.49,31.49,0,0,1,11.49-7.38,382.48,382.48,0,0,0-88.4-14.26,339.37,339.37,0,0,0-73.43,5c-5.44.5-11.08,1-16.87,1.55C131.45,45.31,126.17,46,121.08,46.63Z"/><path class="cls-54" d="M113.78,51a81.71,81.71,0,0,0-26.45-.12C46.59,54.28,21.38,86.8,15.48,94.34q-.9,4.95-1.79,9.89c23.51,4.56,48.84,8.49,75.84,11.31a828.82,828.82,0,0,0,148,2.2l58-28.87c-.26-1.06-2.32-15.41,7.23-23.3A27.34,27.34,0,0,1,314,55.18a358.93,358.93,0,0,0-82.46-13.41,295.64,295.64,0,0,0-72.84,6.15c-7.72.53-15.7,1-23.92,1.49C127.54,49.88,120.55,50.46,113.78,51Z"/><path class="cls-55" d="M106.49,55.3a76.45,76.45,0,0,0-23.88,1.29C44.41,60,20.63,90.32,14.78,97.5c-.46,3.3-.91,6.6-1.37,9.9,23.52,4.83,49,9,76.22,12.06,56.54,6.47,107.73,5.48,151,2L294.92,93.8c-.34-1.26-2.34-14.88,6.47-22.52a30.5,30.5,0,0,1,11-13.41,334.86,334.86,0,0,0-76.52-12.56c-23.15-1.18-47.5,1.63-72.25,7.32-10,.57-20.32,1-31,1.44C123.63,54.45,114.92,54.93,106.49,55.3Z"/><path class="cls-56" d="M99.19,59.65a73.08,73.08,0,0,0-21.3,2.7c-35.66,3.29-58,31.51-63.81,38.32-.31,3.31-.63,6.61-.94,9.91,23.51,5.12,49.11,9.55,76.6,12.82a741,741,0,0,0,153.9,1.78L294.3,98.75C293.89,97.3,292,84.4,300,77a34.38,34.38,0,0,1,10.68-16.43,312.27,312.27,0,0,0-70.57-11.71c-21.46-1.18-45.59,1.92-71.67,8.51-12.25.6-24.94,1-38,1.37C119.72,59.05,109.3,59.43,99.19,59.65Z"/><path class="cls-57" d="M91.89,64a72.25,72.25,0,0,0-18.72,4.11c-33.12,3.21-54,29.28-59.78,35.74-.18,3.3-.36,6.61-.53,9.91a776.2,776.2,0,0,0,77,13.58c59.6,7.46,113.06,5.86,156.83,1.57l47-25.22c-.49-1.64-2.36-13.81,5-21a38.48,38.48,0,0,1,10.42-19.44c-16.77-5-38.72-9.3-64.63-10.86-19.78-1.19-43.68,2.19-71.08,9.68-14.52.64-29.56,1-45.08,1.31C115.81,63.63,103.67,63.89,91.89,64Z"/><path class="cls-58" d="M84.6,68.3a78,78,0,0,0-16.16,5.52C37.86,77,18.38,100.89,12.69,107c0,3.31-.07,6.61-.11,9.92A740,740,0,0,0,90,131.23c61.11,8,115.71,6.05,159.75,1.36l43.37-24c-.56-1.83-2.36-13.27,4.23-20.2,1.2-10.51,6.6-18.25,10.15-22.45-15.19-4.64-35.13-8.44-58.69-10-18.09-1.2-41.77,2.47-70.49,10.86-16.79.68-34.19,1-52.14,1.25C111.9,68.21,98.05,68.36,84.6,68.3Z"/><path class="cls-59" d="M77.46,72.63a99.11,99.11,0,0,0-13.58,6.93c-28,3.07-46.09,24.84-51.73,30.56.1,3.32.21,6.63.31,9.94a711.25,711.25,0,0,0,77.75,15.09c62.64,8.59,118.38,6.24,162.68,1.14l39.73-22.78c-.64-2-2.38-12.74,3.47-19.42.68-11.72,6.2-20.61,9.89-25.47-13.61-4.24-31.54-7.59-52.76-9.16-16.4-1.22-39.85,2.74-69.9,12-19.06.72-38.8,1.06-59.19,1.2C108.14,72.79,92.58,72.82,77.46,72.63Z"/><path class="cls-60" d="M70.38,77c-2.78,2.12-6.56,4.6-11,8.34-25.5,3-42.12,22.62-47.71,28,.25,3.31.49,6.63.74,10a682.9,682.9,0,0,0,78.12,15.84c64.17,9.17,121.05,6.43,165.62.93l36.07-21.56c-.71-2.22-2.38-12.2,2.73-18.65.15-12.92,5.79-23,9.62-28.48-12-3.85-28-6.75-46.82-8.32C243,61.76,219.8,66,188.43,76.2q-32,1.13-66.24,1.13C104.44,77.37,87.17,77.28,70.38,77Z"/><path class="cls-61" d="M63.29,81.27c-2,2.67-4.93,5.66-8.43,9.74-23,2.94-38.15,20.41-43.68,25.4.38,3.32.77,6.64,1.15,10A654.81,654.81,0,0,0,90.84,143c65.68,9.75,123.7,6.62,168.54.72l32.43-20.34c-.79-2.42-2.4-11.67,2-17.88-.37-14.13,5.4-25.32,9.36-31.5-10.45-3.45-24.37-5.9-40.88-7.46-13-1.24-36,3.29-68.72,14.39q-35.4,1.18-73.3,1.07C100.74,81.94,81.75,81.74,63.29,81.27Z"/><path class="cls-62" d="M56.21,85.59a96,96,0,0,1-5.87,11.15c-20.41,2.86-34.17,18.19-39.65,22.81l1.58,10a627.15,627.15,0,0,0,78.88,17.35c67.21,10.34,126.37,6.81,171.48.51l28.77-19.12c-.86-2.61-2.4-11.14,1.23-17.1-.89-15.33,5-27.68,9.09-34.51-8.87-3.06-20.79-5.06-34.94-6.62-11.37-1.25-34.12,3.57-68.14,15.57q-38.79,1.25-80.34,1Q86.41,86.52,56.21,85.59Z"/><path class="cls-63" d="M49.12,89.9a73.81,73.81,0,0,1-3.29,12.57c-17.87,2.79-30.2,16-35.63,20.22l2,10a604.24,604.24,0,0,0,79.27,18.11c68.72,10.93,129,7,174.4.3L291,133.18c-.94-2.81-2.42-10.61.47-16.34-1.41-16.53,4.59-30,8.83-37.52-7.29-2.67-17.2-4.23-29-5.77-9.7-1.26-32.21,3.85-67.55,16.75q-42.19,1.29-87.4,1Q81.84,91.06,49.12,89.9Z"/><path class="cls-64" d="M42,94.19a83,83,0,0,1-.72,14C26,110.88,15.09,121.91,9.72,125.8l2.42,10a576.41,576.41,0,0,0,79.64,18.86c70.22,11.64,131.7,7.19,177.34.08l21.48-16.68c-1-3-2.43-10.07-.28-15.56-1.94-17.74,4.19-32.38,8.56-40.54-5.7-2.27-13.63-3.41-23.06-4.91-8.05-1.28-30.3,4.12-67,17.92q-45.62,1.35-94.45.89Q77.26,95.56,42,94.19Z"/><path class="cls-65" d="M35,98.51a113.15,113.15,0,0,1,1.86,15.38C24,116.54,14.56,125.42,9.23,129l2.84,10a557.57,557.57,0,0,0,80,19.62c71.74,12.22,134.36,7.37,180.26-.13L290.19,143c-1.09-3.19-2.44-9.54-1-14.79-2.46-18.94,3.79-34.73,8.3-43.55-4.12-1.88-10.06-2.63-17.12-4.07C273.93,79.27,252,85,214,99.67q-49,1.41-101.51.84Q72.68,100.09,35,98.51Z"/><path class="cls-66" d="M27.12,102.07c1.7,5.43,3.15,11,4.43,16.79C21.3,121.44,13.27,128.17,8,131.33l3.26,10a539.71,539.71,0,0,0,80.41,20.38c73.26,12.79,137,7.56,183.19-.34L289,147.13c-1.17-3.38-1.74-8.95-1.78-14-.14-20.36,3.39-37.09,8-46.57a27.91,27.91,0,0,0-11.18-3.21c-4.5-2.17-26.47,4.68-65.78,20.27q-52.43,1.47-108.56.78Q67.37,103.85,27.12,102.07Z"/><path class="cls-67" d="M17,102.91c2.45,6,4.77,12,7,18.2-7.71,2.5-14.31,7.08-19.53,9.88l3.68,10A524.33,524.33,0,0,0,89,162.15c74.78,13.36,139.68,7.75,186.12-.56l10.53-13a59.12,59.12,0,0,1-2.52-13.24c-1.92-21.55,3-39.44,7.76-49.58a8.73,8.73,0,0,0-5.24-2.37q-4.22-3.36-65.2,21.45-55.81,1.52-115.61.72Q59.78,104.91,17,102.91Z"/><path class="cls-68" d="M6.57,103.75l9.58,19.61L.64,130.65l4.11,10a509,509,0,0,0,81.17,21.89A520.68,520.68,0,0,0,275,161.81L281.85,150a80.62,80.62,0,0,1-3.28-12.46c-4-22.56,2.59-41.8,7.5-52.6.62-.69.86-1.2.7-1.52q-1.66-3.47-64.61,22.63-59.22,1.58-122.66.66Q51.83,105.95,6.57,103.75Z"/><path class="cls-69" d="M8.76,103.65l9,19.22L3.2,130.37,7.54,140q5.53,2,11.31,3.92c8.1,2.27,16.57,4.44,25.42,6.45,13.49,3.57,27.8,6.79,42.9,9.47q10.89,1.94,21.49,3.36c6.79,1.15,13.55,2.28,20.36,3.24,4.43.62,8.82,1.1,13.13,1.49q8.9.72,17.53,1.13a552,552,0,0,0,113.07-8q3.19-5.72,6.31-11.59a85.64,85.64,0,0,1-3.3-12.14,86.85,86.85,0,0,1-1.5-13.86,89.76,89.76,0,0,1,6.89-36.74c.56-.66.76-1.14.59-1.44q-2.81-3.33-63.06,21.07-57.75,1.33-119.44.35Q52.86,105.83,8.76,103.65Z"/><path class="cls-70" d="M10.94,103.56l8.38,18.83-13.56,7.7,4.58,9.12q5.45,2,11.14,3.87c7.85,1.75,16.06,3.41,24.62,4.93,13.35,3.38,27.47,6.45,42.32,9q10.72,1.85,21.19,3.22c6.4,1.3,12.82,2.75,19.48,4,4.3.81,8.59,1.4,12.76,1.87q8.73.83,17.22,1.36a580.21,580.21,0,0,0,111.46-7.33c2-3.67,3.89-7.48,5.73-11.37A91.68,91.68,0,0,1,273,136.94a93.67,93.67,0,0,1-1.76-13.42,86.78,86.78,0,0,1,5-35.18c.5-.62.66-1.08.49-1.37q-4-3.18-61.53,19.51-56.25,1.13-116.21.06Q53.91,105.69,10.94,103.56Z"/><path class="cls-71" d="M12.28,103.47l7.78,18.44-12.6,7.9,4.82,8.67q5.39,1.92,11,3.81c7.61,1.23,15.55,2.38,23.81,3.4,13.21,3.2,27.14,6.11,41.75,8.54q10.56,1.76,20.89,3.08c6,1.46,12.1,3.22,18.6,4.77,4.17,1,8.35,1.69,12.39,2.24q8.56.93,16.91,1.58a613.08,613.08,0,0,0,109.85-6.61c1.8-3.54,3.54-7.29,5.16-11.14a100.61,100.61,0,0,1-3.34-11.5,105.41,105.41,0,0,1-2-13A85.14,85.14,0,0,1,270.45,90c.44-.59.57-1,.38-1.29q-5.1-3-60,18-54.78.89-113-.24Q54.1,105.54,12.28,103.47Z"/><path class="cls-72" d="M13.35,103.37l7.19,18.06-11.63,8.1L14,137.74c3.54,1.26,7.15,2.52,10.82,3.75q11,1.08,23,1.88c13.08,3,26.81,5.77,41.18,8.08q10.41,1.67,20.59,2.93c5.6,1.62,11.37,3.7,17.72,5.54a102.13,102.13,0,0,0,12,2.62q8.41,1,16.62,1.8a649.59,649.59,0,0,0,108.23-5.89c1.64-3.41,3.19-7.1,4.58-10.92a112.32,112.32,0,0,1-3.35-11.18,122.76,122.76,0,0,1-2.28-12.55c-1.88-14.34-.42-25.39,1.34-32.07.38-.54.47-1,.27-1.21q-6.24-2.89-58.43,16.39-53.3.66-109.75-.54Q54,105.42,13.35,103.37Z"/><path class="cls-73" d="M14.43,103.28,21,120.94l-10.66,8.31L15.64,137q5.24,1.88,10.66,3.7c7.12.2,14.52.34,22.19.36,12.94,2.83,26.49,5.42,40.61,7.61q10.25,1.58,20.29,2.79c5.21,1.78,10.64,4.16,16.84,6.3a83.14,83.14,0,0,0,11.64,3q8.25,1.13,16.31,2c40.11,1.33,76.24-1.52,106.62-5.17a92.1,92.1,0,0,0,4-10.7c-1.18-3.3-2.35-6.94-3.36-10.86-1.08-4.14-1.87-8.21-2.54-12.11-2.37-13.85-1.76-24.28-.51-30.51.31-.51.37-.89.16-1.14q-7.38-2.75-56.88,14.84-51.82.44-106.53-.84Q54,105.29,14.43,103.28Z"/><path class="cls-74" d="M15.51,103.18l6,17.28L11.8,129l5.53,7.29q5.16,1.85,10.49,3.64c6.88-.31,14-.68,21.39-1.16,12.8,2.65,26.15,5.08,40,7.15q10.08,1.49,20,2.65c4.82,1.93,9.93,4.62,16,7.06A69.9,69.9,0,0,0,136.45,159q8.1,1.23,16,2.24c39.16,1.29,74.7-1.21,105-4.45a73.19,73.19,0,0,0,3.43-10.48c-1.16-3.21-2.33-6.74-3.39-10.54-1.11-4-2-7.91-2.8-11.67-2.84-13.36-3.08-23.16-2.36-28.95.26-.48.27-.83.06-1.07q-8.52-2.59-55.34,13.28-50.32.21-103.3-1.14Q53.89,105.15,15.51,103.18Z"/><path class="cls-75" d="M16.58,103.08,22,120l-8.72,8.7L19,135.53q5.08,1.8,10.33,3.58,9.94-1.25,20.58-2.69c12.67,2.47,25.83,4.74,39.46,6.68q9.93,1.41,19.68,2.51c4.42,2.09,9.2,5.09,15.09,7.83A60.53,60.53,0,0,0,135,157.2q7.94,1.34,15.71,2.46c38.2,1.26,73.15-.91,103.39-3.73A61.17,61.17,0,0,0,257,145.66c-1.12-3.11-2.3-6.53-3.4-10.21s-2.11-7.6-3.06-11.24c-3.32-12.87-4.41-22-4.21-27.39.19-.44.17-.77,0-1q-9.66-2.46-53.8,11.71-48.84,0-100.07-1.43Q53.82,105,16.58,103.08Z"/><path class="cls-76" d="M17.66,103l4.78,16.51-7.75,8.91,6,6.38q5,1.78,10.17,3.53,9.59-2,19.77-4.22c12.53,2.3,25.5,4.41,38.89,6.23q9.77,1.32,19.38,2.37c4,2.24,8.48,5.54,14.21,8.59a54.42,54.42,0,0,0,10.51,4.14q7.78,1.43,15.41,2.68c37.25,1.22,71.61-.61,101.78-3A52,52,0,0,0,253.08,145c-1.09-3-2.27-6.33-3.41-9.89s-2.23-7.3-3.32-10.8c-3.8-12.38-5.75-20.92-6.06-25.83a.79.79,0,0,0-.16-.91q-10.8-2.33-52.25,10.15Q140.51,107.52,91,106,53.74,104.86,17.66,103Z"/><path class="cls-77" d="M18.73,102.88,22.92,119l-6.78,9.11L22.37,134q4.95,1.74,10,3.47,9.23-2.79,19-5.74c12.39,2.11,25.17,4.06,38.31,5.76q9.6,1.23,19.08,2.23c3.63,2.4,7.75,6,13.33,9.35a48.34,48.34,0,0,0,10.14,4.52q7.6,1.53,15.1,2.9c36.3,1.18,70.06-.3,100.17-2.29a46.44,46.44,0,0,0,1.7-9.82c-1.07-2.93-2.24-6.14-3.44-9.58s-2.35-7-3.57-10.36c-4.29-11.89-7.08-19.8-7.92-24.27a.8.8,0,0,0-.26-.84q-12-2.16-50.71,8.6-45.89-.48-93.61-2Q53.67,104.73,18.73,102.88Z"/><path class="cls-78" d="M19.81,102.78l3.59,15.73-5.82,9.31,6.48,5.47q4.86,1.72,9.83,3.42,8.86-3.57,18.17-7.27,18.38,2.9,37.74,5.3,9.45,1.14,18.78,2.09c3.23,2.55,7,6.44,12.45,10.11a44.86,44.86,0,0,0,9.76,4.91q7.46,1.62,14.81,3.12c35.34,1.14,68.51,0,98.55-1.58a41.63,41.63,0,0,0,1.12-9.6c-1-2.83-2.21-5.94-3.45-9.26s-2.47-6.69-3.84-9.92c-4.76-11.41-8.41-18.68-9.76-22.72a.85.85,0,0,0-.37-.76q-13.09-2-49.16,7-44.4-.69-90.39-2.33Q53.61,104.58,19.81,102.78Z"/><path class="cls-79" d="M20.85,102.66l3,15.35L19,127.52l6.71,5q4.8,1.68,9.68,3.35,8.49-4.33,17.36-8.78c12.12,1.74,24.51,3.38,37.16,4.83q9.28,1.06,18.48,1.95c2.84,2.71,6.31,6.89,11.57,10.88a41.93,41.93,0,0,0,9.39,5.28q7.31,1.72,14.5,3.34c34.39,1.1,67,.3,96.94-.86a38.76,38.76,0,0,0,.55-9.38c-1-2.73-2.18-5.74-3.47-8.93s-2.6-6.39-4.09-9.49c-5.25-10.92-9.75-17.56-11.62-21.16a1,1,0,0,0-.47-.68q-14.24-1.87-47.62,5.48-42.93-.93-87.16-2.63Q53.49,104.42,20.85,102.66Z"/><path class="cls-80" d="M21.81,103.38l2.39,15-3.87,9.71,6.94,4.57q4.73,1.65,9.51,3.29,8.13-5.1,16.56-10.31,18,2.36,36.59,4.37,9.12,1,18.18,1.81c2.44,2.87,5.59,7.34,10.69,11.64a39.49,39.49,0,0,0,9,5.66c4.75,1.22,9.49,2.41,14.19,3.57,33.44,1.06,65.43.6,95.33-.14a37.33,37.33,0,0,0,0-9.17c-1-2.63-2.15-5.53-3.49-8.61s-2.72-6.08-4.35-9A129.51,129.51,0,0,0,216,106.09a1.29,1.29,0,0,0-.59-.61q-15.37-1.74-46.07,3.92-41.44-1.16-83.94-2.93Q53.31,105.11,21.81,103.38Z"/><path class="cls-81" d="M22.7,104.14l1.79,14.56-2.9,9.92,7.18,4.11L38.11,136q7.77-5.88,15.75-11.84,17.77,2.09,36,3.91,9,.89,17.88,1.67c2,3,4.88,7.79,9.81,12.4a38,38,0,0,0,8.64,6q7,1.93,13.9,3.79c32.48,1,63.88.91,93.71.57a36,36,0,0,0-.61-8.94c-1-2.54-2.12-5.34-3.5-8.28a80.79,80.79,0,0,0-4.61-8.61,81.82,81.82,0,0,0-15.31-18.05,2,2,0,0,0-.69-.53q-16.53-1.59-44.54,2.36-39.94-1.38-80.7-3.23Q53.05,105.82,22.7,104.14Z"/><path class="cls-82" d="M23.52,104.74l1.19,14.18L22.77,129l7.43,3.65q4.57,1.6,9.18,3.19,7.4-6.66,14.94-13.36,17.57,1.8,35.45,3.44,8.81.8,17.57,1.53a52.12,52.12,0,0,0,8.94,13.17,37.83,37.83,0,0,0,8.26,6.42l13.6,4c31.53,1,62.33,1.21,92.1,1.3a37.8,37.8,0,0,0-1.19-8.73,80.61,80.61,0,0,0-3.52-8,64.84,64.84,0,0,0-4.87-8.17A61.85,61.85,0,0,0,203.5,111a3.16,3.16,0,0,0-.8-.45q-17.67-1.45-43,.8-38.48-1.62-77.48-3.53Q52.73,106.38,23.52,104.74Z"/><path class="cls-83" d="M24.3,105.23,24.9,119l-1,10.32,7.66,3.2,9,3.13q7-7.44,14.13-14.89,17.35,1.53,34.88,3,8.64.72,17.27,1.39A43.94,43.94,0,0,0,115,139.08a37.3,37.3,0,0,0,7.89,6.8l13.29,4.22c30.58,1,60.79,1.52,90.49,2a41.44,41.44,0,0,0-1.76-8.5,61.67,61.67,0,0,0-3.54-7.65,54.42,54.42,0,0,0-5.13-7.73,52.07,52.07,0,0,0-19-14.93,7.67,7.67,0,0,0-.91-.38q-18.81-1.31-41.44-.76-37-1.83-74.25-3.82Q52.37,106.84,24.3,105.23Z"/><path class="cls-84" d="M25.09,129.64l16.75,5.82,13.33-16.41,51.27,3.76a38.58,38.58,0,0,0,7.18,14.7,38.14,38.14,0,0,0,7.52,7.17l13,4.45L223,151.86a46.87,46.87,0,0,0-33.16-36.57L25.09,105.72Z"/></g></g></svg>