<?xml version='1.0' encoding='iso-8859-1'?>
<svg version="1.1" xmlns="http://www.w3.org/2000/svg" viewBox="0 0 270.16 270.16" xmlns:xlink="http://www.w3.org/1999/xlink" enable-background="new 0 0 270.16 270.16">
  <path d="m254.221,116.272c-7.188-4.19-44.241-24.905-68.18-21.17-2.825,0.441-5.567,1.09-8.22,1.906 0.215-2.032 0.339-4.092 0.339-6.181 0-24.214-26.182-57.644-31.43-64.1l-11.639-14.315-11.639,14.316c-5.248,6.455-31.429,39.885-31.429,64.099 0,2.091 0.124,4.154 0.339,6.188-2.661-0.82-5.411-1.472-8.245-1.914-23.935-3.742-60.991,16.98-68.179,21.17l-15.938,9.294 12.351,13.707c5.11,5.671 29.94,32.241 52.481,39.47-12.763,19.57-16.861,53.337-17.616,60.652l-1.893,18.354 18.353-1.894c8.276-0.854 50.427-5.979 67.549-23.102 1.379-1.379 2.666-2.816 3.877-4.293 1.212,1.477 2.498,2.914 3.878,4.293 17.122,17.122 59.272,22.248 67.549,23.102l18.354,1.894-1.894-18.354c-0.755-7.317-4.855-41.095-17.623-60.663 22.531-7.246 47.337-33.791 52.445-39.459l12.351-13.707-15.941-9.293zm-119.154-54.451c7.063,10.98 13.092,22.754 13.092,29.007 0,13.076-8.581,21.417-13.068,21.417s-13.067-8.341-13.067-21.417c-0.001-6.065 5.712-17.63 13.043-29.007zm-55.575,62.922c12.921,2.017 19.839,11.781 19.147,16.215s-10.254,11.622-23.176,9.61h0.001c-5.992-0.936-16.54-8.363-26.65-17.362 11.938-5.286 24.511-9.427 30.678-8.463zm30.52,86.797c-4.288,4.288-16.506,8.427-29.735,11.287 2.771-12.758 6.833-25.347 11.254-29.769 4.302-4.301 9.935-7.13 15.456-7.761 0.789-0.09 1.531-0.131 2.227-0.131 3.434,0 5.712,0.998 6.702,1.988 3.172,3.174 3.342,15.139-5.904,24.386zm50.18,0c-9.246-9.246-9.076-21.212-5.902-24.385 0.99-0.991 3.268-1.988 6.701-1.988 0.695,0 1.438,0.041 2.227,0.131 5.521,0.631 11.154,3.46 15.456,7.761 4.288,4.288 8.427,16.506 11.287,29.735-12.758-2.771-25.347-6.834-29.769-11.254zm34.504-60.972c-12.917,2.021-22.481-5.177-23.175-9.61-0.691-4.434 6.227-14.198 19.146-16.215 0.604-0.094 1.271-0.14 1.998-0.14 6.484,0 17.576,3.629 28.714,8.574-10.122,9.012-20.685,16.454-26.683,17.391z"/>
</svg>
