<svg id="Layer_1" data-name="Layer 1" xmlns="http://www.w3.org/2000/svg" viewBox="0 0 761.07 761.07"><path d="M752.3,378.74c0,201.93-139,357.56-340.94,357.56S8.76,619.44,8.76,417.51,151.92,24.77,353.85,24.77,752.3,176.81,752.3,378.74Z"/><path d="M364,337c-.09,2.24-.15,4.53-.33,6.73l-.4,3.21c-.16,1.06-.23,2.14-.48,3.18a82.36,82.36,0,0,1-3.28,12.34,101.56,101.56,0,0,1-11.21,22.19c-9.11,13.59-20.39,25-32.39,35.09-6,5.05-12.25,9.77-18.62,14.24s-12.85,8.73-19.44,12.78c-13.2,8.08-26.78,15.38-40.59,22.12l4.49-6.77c-.63,11-.92,22-1.11,33.16l-.26,16.78c0,5.62-.07,11.26,0,16.9l.13,6.69-7.44,1.45h0a341.5,341.5,0,0,1-37.34,3.78c-12.42.63-24.81.77-37.19.59l-8.9-.14-.78-9.29c-1.63-19.33-2.06-38.64-2-57.82s.66-38.25,1.18-57.2,1-37.78.87-56.46a554.34,554.34,0,0,0-2.84-55.41l14.65,13.42c-3.82,0-7.2-.14-10.49-.36l-9.22-.72-13.47-1-.24-14c-.23-13.23,0-26.4.74-39.54q.53-9.86,1.36-19.69c.57-6.57,1.22-13.1,2.08-19.81l1.7-13.34,14-.79h0c22.75-.87,45.19,1.25,67.36,5.07a329.21,329.21,0,0,1,33,7.45,267,267,0,0,1,32.12,11.33,200.65,200.65,0,0,1,30.47,16.19A136.44,136.44,0,0,1,337,272.08a104.58,104.58,0,0,1,19.29,30,98.46,98.46,0,0,1,5.4,17.08c.29,1.46.62,2.91.86,4.37s.48,2.93.67,4.4.34,2.92.49,4.41Zm-18.33.68-.39-3.41-.54-3.6c-.21-1.2-.47-2.38-.7-3.57s-.57-2.36-.84-3.53a79.25,79.25,0,0,0-4.9-13.54,82.26,82.26,0,0,0-16.78-23.26,115.14,115.14,0,0,0-23.63-17.49A165.34,165.34,0,0,0,270.37,257a241.18,241.18,0,0,0-29.54-8.11c-10.05-2.12-20.24-3.72-30.5-4.84s-20.59-1.78-30.9-2-20.6-.08-30.77.37h0l15.68-14.13c-1,6-1.88,12.16-2.65,18.33s-1.45,12.38-2,18.59c-1.16,12.42-1.89,24.87-2.16,37.26l-13.71-15,9.09,1.06c2.83.31,5.58.55,7.89.61l13.76.36.9,13.07c1.34,19.61,1.34,39.07.73,58.34s-1.85,38.36-3.18,57.31-2.68,37.8-3.54,56.56-1.23,37.43-.45,56l-9.69-9.42c12,.68,24,1,35.89.94a323.05,323.05,0,0,0,35.47-2.08h0l-7.31,8.13c.52-5.51.8-11,1-16.59s.21-11.12.3-16.72c.16-11.19.44-22.51,1.07-33.8l.26-4.69,4.23-2.08c13.42-6.59,26.57-13.67,39.22-21.43,6.33-3.88,12.54-7.93,18.55-12.2s11.82-8.81,17.36-13.56c11.06-9.5,21.23-20,28.68-31.87a79.29,79.29,0,0,0,8.79-18.51,64.64,64.64,0,0,0,2.26-9.68c.17-.81.18-1.63.28-2.45l.24-2.44C345.63,340.76,345.61,339.26,345.67,337.72Z" style="fill:#f2f2f2"/><path d="M271.81,343.14c-.08,0-.1,0-.05,0l-.25-1.11-.35-1.1-.44-1.07a15.54,15.54,0,0,0-2.8-4.07,36,36,0,0,0-10-7,134,134,0,0,0-13.17-5.53l-3.55-1.32a19,19,0,0,0-3.72-1.06c-1.3-.25-2.58-.62-3.88-1s-2.62-.79-4-1.23l12.69-8c.68,12.4,1.29,24.68,2.31,36.74.51,6,1.11,12,1.9,17.89l1.25,8.77c.45,2.91,1,5.79,1.42,8.65l-21-13.74c1.39-.71,3.35-1.73,5.26-2.87s4.27-1.76,6.49-2.68a118.44,118.44,0,0,0,13.19-6.24,84.81,84.81,0,0,0,11.7-7.68,40.56,40.56,0,0,0,4.46-4.14,21,21,0,0,0,1.56-1.91c.09-.14.23-.3.31-.43s.16-.26.25-.39.11-.17.13-.17a.91.91,0,0,0,0,.23A1.06,1.06,0,0,0,271.81,343.14Zm18.33-.52c0,.81,0,1.63-.08,2.46,0,.41-.08.82-.13,1.23l-.13.82-.28,1.58c-.1.52-.23,1-.36,1.48a36.07,36.07,0,0,1-1.92,5.46,52.72,52.72,0,0,1-5.12,9,99.49,99.49,0,0,1-12.31,14.29,148.48,148.48,0,0,1-13.88,11.89c-2.47,1.81-4.89,3.83-7.86,5.05a83.88,83.88,0,0,1-9.72,3.48l-20.92,5.89-.11-19.63c0-1.64,0-3.27,0-4.9l.09-4.88.17-4.86.28-4.83q.63-9.63,1.64-19.06c1.33-12.58,3.08-24.92,4.73-37.13l1.9-14L236.89,302c1,.56,2,1.1,3.05,1.65s2.15,1.05,3.22,1.67a16,16,0,0,0,3.41,1.51l3.6,1.21a155.08,155.08,0,0,1,15,5.76,54,54,0,0,1,15.07,9.77,35.22,35.22,0,0,1,6.26,8c.42.77.8,1.57,1.19,2.35s.68,1.63,1,2.45.54,1.65.8,2.53A36,36,0,0,1,290.14,342.62Z" style="fill:#f2f2f2"/><path d="M565.16,553.7a45,45,0,0,1-4.73-3.14,38.92,38.92,0,0,1-4.33-3.89l-4.87-5.22-4.71-5.35-4.58-5.46c-6-7.37-11.65-14.95-17-22.76-10.66-15.59-20.2-31.81-29.18-48.22l10.39.58c-1,1.36-2,2.85-3.06,4.45a59.13,59.13,0,0,1-3.72,5l1.4-4.1c.14,5.28.28,10.58.36,15.9s.1,10.67,0,16c-.06,2.69-.15,5.34-.28,8.12-.17,2.53-.21,4.93-.17,7.5.06,5.1.4,10.41.34,16h0l.28,3.87-4.8,1.43a118.23,118.23,0,0,1-17.16,3.62q-8.66,1.22-17.31,1.6c-5.77.27-11.51.38-17.23.27s-11.39-.33-17-.83h0l-5.46,1-1.27-7.17c-1.06-6-1.95-11.95-2.72-17.95s-1.36-12-1.81-18-.91-12-1.19-18-.53-12-.64-18q-.79-36-.35-71.95t1.52-71.75l2.25-71.53.33-10.47,10.39-1.42c6-.82,12-1.54,17.95-2.19s12-1.23,18-1.73c12-1,24.08-1.67,36.42-1.63h0l14.17,0-2,14.25c-1.14,8.25-1.95,16.77-2.54,25.4s-1.07,17.38-1.47,26.18l-1.24,26.52c-.46,8.88-.94,17.79-1.57,26.72l-21.85-6.94q9.27-14.54,17.68-29.66c5.63-10.06,11-20.33,16.13-30.73s10.08-21,15-31.57l14.52-32.09,4-8.83,9.38,2.94a334.88,334.88,0,0,1,32.36,12.06c5.31,2.25,10.69,4.42,16.2,6.52s11.15,4.12,17.28,5.83h0l11.7,3-5.14,15.87a317.22,317.22,0,0,1-15.41,38.16c-5.85,12.31-12.14,24.31-18.7,36.1-13.13,23.58-27.36,46.34-42.19,68.59l.91-12.87c4.31,10.11,9.09,20,14.2,29.78s10.67,19.3,16.57,28.68,12.18,18.55,18.69,27.62,13.31,18,20.3,26.76l5.83,7.34L627.79,510c-4.39,4.34-8.92,8.45-13.54,12.38s-9.35,7.71-14.2,11.27-9.81,7-14.89,10.14c-2.54,1.59-5.1,3.13-7.71,4.62-1.31.73-2.6,1.48-3.93,2.17l-1,.54L571,552A16.1,16.1,0,0,1,565.16,553.7Zm1.41-13.35a2.29,2.29,0,0,0-2.16-.66c-.54.23.07-.17.28-.37l.84-.69,3.34-2.74,6.66-5.5q6.65-5.48,13.15-11c4.32-3.71,8.58-7.47,12.67-11.36s8-7.88,11.77-12l-.43,13.53q-11.45-12.88-22.39-26.37t-21-27.82c-6.68-9.55-13-19.37-19-29.46s-11.45-20.47-16.54-31.05l-3-6.34,4-6.53c13.59-22.37,26.47-45.11,38.12-68.28,5.82-11.59,11.3-23.29,16.35-35.09s9.79-23.64,14.19-35.46L610,262l0,0a54.76,54.76,0,0,0-11.6-10.79,90.38,90.38,0,0,0-13.79-8c-4.85-2.24-9.79-4.33-14.78-6.31s-10-3.82-15.07-5.51l13.38-5.9-14.71,32q-7.29,16.1-14.93,32.17t-16,31.94q-8.36,15.85-17.66,31.26L483,345.86q.6-13.12,1-26.33l.86-26.53c.32-8.89.64-17.84,1.28-26.86S487.51,248,489,238.73l12.21,14.2h0c-5.64,0-11.36.24-17.09.56s-11.51.68-17.28,1.15-11.56,1-17.33,1.66-11.55,1.32-17.23,2.09l10.71-11.9c-.88,23.93-2,47.77-3.05,71.59s-2.13,47.61-2.92,71.39-1.49,47.53-1.61,71.25l-.11,17.78c-.09,5.93,0,11.84-.18,17.77-.08,3-.05,5.92-.07,8.87l-.14,8.89c-.11,5.92-.08,11.83-.36,17.78l-6.72-6.21h0c5.69-.5,11.36-.68,17-.81s11.22-.18,16.79-.27l16.65-.28,16.61-.41-4.52,5.31h0c-.07-5-.52-10.22-.73-15.68-.11-2.7-.14-5.58,0-8.32.05-2.5.07-5.12.07-7.71,0-10.38-.45-20.84-.93-31.37l-.1-2.27L490.1,462c1.88-2.3,3.71-5.52,6.06-8.88l5.54-7.92,4.86,8.5c9.15,16,18.77,31.7,29.36,46.6C541.23,507.69,546.7,515,552.5,522l4.37,5.23,4.48,5.12,4.58,5a1.65,1.65,0,0,1,.51,1.12C566.5,539,566.49,539.59,566.57,540.35Z" style="fill:#f2f2f2"/></svg>